<svg xmlns="http://www.w3.org/2000/svg" width="1408" height="768"><path fill="#d2704f" d="m864.375 98.125 3.375.284A282 282 0 0 1 908 105c-3.235 5.391-7.13 9.364-11.57 13.73l-2.536 2.52q-4.004 3.975-8.019 7.938-4.024 3.98-8.04 7.969a2101 2101 0 0 1-5.005 4.951c-5.718 5.669-5.718 5.669-6.83 7.892h-2v2h-2v2h-2v2h-2v2h-2l-2 4c-10.076 15.661-24.173 35.65-43.353 39.983-15.032 1.846-30.182 1.013-45.217-.379-25.426-2.013-25.426-2.013-34.852 5.408-15.132 14.092-19.457 26.636-21.039 47.068.307 6.334.715 9.763 4.461 14.92 15.165 6.554 36.568 2.558 52.49.846 10.604-1.128 17.656-.31 26.51 6.154 6.713 6.823 10.01 12.526 11 22-.13 2.448-.341 4.892-.616 7.328-5.104 49.558-5.104 49.558.616 63.672 6.95 5.66 13.545 5.67 22.063 4.875l3.14-.258c12.682-1.367 24.623-5.442 33.22-15.252 6.034-12.559 4.189-27.38 3.764-40.99q-.135-7.26-.211-14.523-.057-4.5-.197-8.998l-.087-4.099-.11-3.597c.507-3.829 1.695-5.471 4.418-8.158h2v-2h2v-2h2l2-4a172 172 0 0 1 5.716-5.927l3.631-3.621 3.946-3.905 4.044-4.028a8327 8327 0 0 1 10.67-10.605q7.495-7.439 14.977-14.89a5246 5246 0 0 1 7.974-7.92c10.033-9.98 10.033-9.98 14.04-14.728 2.833-3.186 5.437-5.108 9.002-7.376 2.248 14.428 3.728 28.866 4.563 43.438l.187 3.268c1.416 28.183-1.51 50.184-20.828 71.712-16.16 17.58-34.684 33.15-53.55 47.735-3.235 2.732-5.758 5.53-8.372 8.847a283 283 0 0 1-5 5l-2.687 2.813C864 382 864 382 862 382l-2 4-2 2c-2.827-.5-5.651-1.015-8.459-1.611-30.454-6.219-30.454-6.219-43.172-.407-4.206 3.582-4.724 7.865-5.527 13.16-1.36 17.746.42 35.602 2.528 53.227 1.042 9.82-.53 16.585-6.37 24.631-5.116 6.02-9.44 8.708-17 11-5.184.112-10.26-.455-15.414-.973q-4.462-.277-8.926-.517c-4.696-.257-9.338-.579-14.011-1.112-16.95-1.86-16.95-1.86-24.804 1.115-6.296 5.504-7.11 14.306-7.73 22.267-.32 9.041.061 17.296 4.885 25.22 6.65 2.697 13 1.287 19.852-.035l3.155-.564q6.822-1.221 13.63-2.525c27.646-5.193 58.64-7.72 83.109 8.533 22.626 16.499 42.077 37 61.129 57.404l4.272 4.556c14.303 15.286 28.314 30.824 41.935 46.724l3.031 3.538c6.759 7.984 6.759 7.984 7.887 11.369-3.696.948-7.225 1.616-10.989 2.181l-3.61.558c-49.072 7.208-106.796 14.32-148.815-16.805-16.05-12.611-30.34-26.934-44.336-41.746l-3.831-3.987c-8.56-8.922-16.813-18.06-24.903-27.408l-3.22-3.612c-14.636-16.685-19.931-29.812-19.051-52.16.485-6.462 1.467-12.733 2.81-19.071.959-5.48.91-8.183-2.055-12.95-12.397-4.035-26.509-2.145-39.342-1.415-7.069.376-14.146.56-21.22.772q-5.656.187-11.306.48c-11.361.514-18.215-.06-27.444-7.15-5.708-5.707-9.656-12.068-9.713-20.3l.306-4.06c.572-8.434.98-16.86 1.326-25.305q.27-5.483.697-10.956c1.851-24.484 1.851-24.484-2.304-32.066-8.378-4.624-19.198-2.793-28.13-.595-7.51 3.095-12.442 8.953-16.87 15.595.227 3.564.578 7.024 1.027 10.562 11.656 102.192 11.656 102.192-13.404 134.261-8.233 9.856-17.267 18.733-26.873 27.24l-2.838 2.514a475 475 0 0 1-33.432 26.784C461 607 461 607 457 611h-1c-.227-4.528-.383-9.04-.494-13.572-.04-1.444-.078-2.888-.118-4.376-.34-13.42-.548-26.84-.714-40.264-.113-9.015-.272-18.024-.54-27.036a1130 1130 0 0 1-.45-26.143 382 382 0 0 0-.252-9.922c-1-27.149-1-27.149 8.003-38.23C467.085 445.4 473.152 439.69 480 435h2v-2h2l2-4a127 127 0 0 1 5-5.25l2.688-2.703C496 419 496 419 498 419v-2h2v-2h2l2-4a127 127 0 0 1 5-5.25l2.688-2.703C514 401 514 401 516 401l2-4a127 127 0 0 1 5-5.25l2.688-2.703C528 387 528 387 530 387v-2h2l2-4a127 127 0 0 1 4.938-5.125l2.652-2.633C544 371 544 371 547 369c2.773.201 5.539.516 8.294.887 20.191 1.898 20.191 1.898 28.706-1.887 6.723-10.16 3.54-25.526 2.625-37-.242-5.25-.434-10.5-.624-15.751q-.207-4.914-.544-9.82c-.61-9.162-.789-16.418 4.488-24.355C595.9 274.554 601.31 271.173 610 269c2.725.122 5.447.32 8.165.556C677.51 274.253 677.51 274.253 694 268c4.367-3.894 5.229-8.058 5.744-13.73.022-9.953-2.08-19.769-4.752-29.312C694 220 694 220 697 215c15.017-19.411 32.114-37.422 48.875-55.312l3.684-3.939c34.288-36.372 62.852-62.014 114.816-57.624M820 125c-.267 6.04-.271 12.084-.295 18.13-.017 3.055-.061 6.11-.105 9.165l-.026 5.748-.044 5.344L820 167c4.952-2.476 8.303-6.017 12.16-9.895l2.383-2.376q2.49-2.49 4.975-4.986a2184 2184 0 0 1 7.617-7.604l4.838-4.846c.76-.755 1.519-1.51 2.3-2.29 3.516-3.545 6.137-6.687 8.727-11.003a8500 8500 0 0 0-17.89-.055q-3.045-.008-6.09-.02-4.368-.018-8.735-.023l-5.316-.016C821 124 821 124 820 125m-20 13-4 4v2l-4 2a327 327 0 0 0-4.739 5.45c-6.074 6.85-12.833 13.11-19.36 19.523l-3.46 3.425-3.165 3.115C759 180 759 180 759 182c3.046.193 6.1.238 9.152.23l5.729-.005 3.008-.02c3.031-.017 6.062-.02 9.093-.02C800.86 182.14 800.86 182.14 802 181c.257-6.808.185-13.625.188-20.437l.037-5.862.005-5.572.013-5.154C802 140 802 140 800 138m82.852 154.36c-.998 6.018-1.205 11.7-.852 17.765.06 1.06.122 2.122.185 3.214.454 6.309.98 12.589 2.815 18.661 5.33-2.665 8.983-6.698 13.14-10.875l2.674-2.667q2.792-2.79 5.578-5.589a2891 2891 0 0 1 8.585-8.572l5.414-5.422 2.613-2.601C929 290.23 929 290.23 929 288c-12.051-2.76-39.702-8.721-46.148 4.36M519 423a265 265 0 0 0-10.25 9.5l-3.061 2.98q-3.205 3.136-6.396 6.286a701 701 0 0 1-6.63 6.425 796 796 0 0 0-9.476 9.247l-3.057 2.882c-2.45 2.474-4.51 4.598-6.13 7.68 1.86 3.582 1.86 3.582 6 7a290 290 0 0 1 4.23 4.39q2.403 2.434 4.817 4.86l2.583 2.6q2.685 2.7 5.375 5.396c2.757 2.766 5.503 5.543 8.249 8.32l5.23 5.247 2.497 2.534c1.95 1.942 3.977 3.807 6.019 5.653l2-1c.2-2.75.256-5.51.259-8.268l.019-5.39-.012-5.873.005-5.975q.005-6.27-.01-12.54c-.012-5.37-.005-10.74.007-16.111.009-5.104.003-10.208-.002-15.312l.012-5.874-.02-5.39c0-1.575-.002-3.151-.004-4.775L521 424zm210 130c3.391 3.978 6.761 7.884 10.488 11.55l2.389 2.366 2.436 2.396c8.553 8.42 8.553 8.42 9.687 10.688h2v2h2v2h2v2h2l2 4c4.333 4.778 4.333 4.778 8 6v2h2v2h2v2h2v2h2l1 3c2.438 2.688 2.438 2.688 5 5h2v2h2l2 4c1.74 1.928 3.54 3.802 5.375 5.64l3.234 3.243L804 630.25l3.39 3.414 3.235 3.227 2.977 2.97C816 642 816 642 818 642c3.586-14.435 4.684-29.684 5.688-44.5l.222-3.203c1.82-29.413 1.82-29.413-5.91-41.297-12.818-8.279-29.844-6.62-44.5-5.562l-3.225.23c-13.873 1.063-27.572 2.903-41.275 5.332m128.37 54.378-2.753 2.774-2.816 2.818q-2.952 2.956-5.896 5.92a4204 4204 0 0 1-9.073 9.092l-5.715 5.733-2.765 2.768C822 642.884 822 642.884 822 644c2.6.097 5.202.117 7.803.114h5.157l5.634-.016 5.717-.005q7.545-.007 15.092-.024 7.691-.014 15.382-.02 15.108-.017 30.215-.049a221 221 0 0 0-12.973-14.035l-3.974-3.951-4.115-4.077q-4.053-4.014-8.098-8.035l-3.614-3.578C871 607 871 607 868.198 603.569L866 601c-3.902 0-6.03 3.787-8.63 6.378"/><path fill="#d17151" d="M712 484c2.816-.336 2.816-.336 6.631-.28l4.307.041 4.69.094 4.772.066q5.005.075 10.01.17c5.133.096 10.267.166 15.4.231q4.848.077 9.694.158l4.697.064 4.297.09 3.813.067L783 485v2c-3.526 1.175-5.707.872-9.4.491-7.337-.696-14.662-1.123-22.025-1.46a196 196 0 0 1-9.542-.798c-17.1-1.793-17.1-1.793-25.138 1.258-6.356 5.508-7.191 14.298-7.81 22.302-.313 9.042.078 17.29 4.915 25.207 6.65 2.695 12.999 1.287 19.852-.035l3.155-.564q6.823-1.221 13.63-2.525c27.646-5.193 58.64-7.72 83.109 8.533 22.626 16.499 42.077 37 61.129 57.404l4.272 4.556c14.303 15.286 28.314 30.824 41.935 46.724l3.031 3.538c6.759 7.984 6.759 7.984 7.887 11.369-4.322.304-8.504.387-12.83.356l-4.167.007c-4.583.003-9.166-.016-13.75-.035q-4.743-.005-9.487-.006-9.966-.007-19.932-.04c-8.543-.029-17.087-.04-25.63-.044q-9.804-.008-19.607-.026l-9.454-.015q-6.592-.01-13.184-.036l-4-.003c-2.987-.015-5.973-.08-8.959-.158v-1c4.197-.117 8.378-.165 12.576-.174l4.05-.02q4.372-.021 8.746-.036 6.906-.026 13.811-.065 19.643-.105 39.284-.182 11.993-.048 23.984-.12 4.59-.024 9.177-.037c4.265-.012 8.53-.036 12.796-.063l3.882-.002c2.9-.024 5.798-.15 8.694-.301v-2l-5 1c-4.518.904-7.774 1.003-12.312.688-1.255-.08-2.509-.158-3.801-.239L924 660v-2h-2v-2h2l-1-3h-3a196 196 0 0 1 0-7h-2v-2h-2v2h-2v4h-6l-1-3c-3.44-.372-3.44-.372-8.144-.369l-5.31-.02-5.788.018-8.912-.04c-7.36-.03-14.718-.027-22.077-.025q-6.18 0-12.362-.032-5.838-.028-11.676-.003l-5.328-.03h-4.708L819 646l-3-4h2c3.557-14.46 4.632-29.728 5.625-44.562l.22-3.206c1.8-29.434 1.8-29.434-5.845-41.232-12.69-8.144-29.55-6.28-44-5.062l-3.188.267c-13.72 1.219-27.28 3.215-40.812 5.795l7 7c-3 0-3 0-6.687-3.312C727 554 727 554 727 551c3.607-.412 3.607-.412 8.72-.464l5.764-.08 6.297-.038 6.39-.069q6.708-.07 13.417-.112c5.751-.038 11.502-.098 17.253-.166q6.6-.073 13.202-.125 3.181-.028 6.363-.064c2.958-.031 5.916-.049 8.873-.065l5.114-.04L822 550v2h2l2-4h2c-.187-3.437-.187-3.437-1-7l-3-1v-3c-3.48-.285-6.783-.355-10.265-.309l-3.306.009c-3.631.012-7.262.045-10.894.077q-3.763.016-7.526.028c-6.623.022-13.246.062-19.87.106q-15.9.106-31.8.162c-3.716.017-7.433.046-11.15.077l-6.794.03-3.163.036c-2.412.004-4.823-.095-7.232-.216-1.885-3.77-1.141-8.428-1.133-12.59l-.003-3.198q0-3.352.006-6.706.005-5.14-.007-10.277 0-3.255.004-6.506l-.006-3.116c.024-7.262.024-7.262 1.139-10.607m145.37 123.378-2.753 2.774-2.816 2.818q-2.952 2.956-5.896 5.92a4204 4204 0 0 1-9.073 9.092l-5.715 5.733-2.765 2.768C822 642.884 822 642.884 822 644c2.6.097 5.202.117 7.803.114h5.157l5.634-.016 5.717-.005q7.545-.007 15.092-.024 7.691-.014 15.382-.02 15.108-.017 30.215-.049a221 221 0 0 0-12.973-14.035l-3.974-3.951-4.115-4.077q-4.053-4.014-8.098-8.035l-3.614-3.578C871 607 871 607 868.198 603.569L866 601c-3.902 0-6.03 3.787-8.63 6.378"/><path fill="#d27657" d="m863.938 98.563 3.393.265c13.735 1.162 27.2 3.2 40.669 6.172l-3 5-1-4c-3.693-.497-3.693-.497-8.755-.49l-5.714-.016q-3.117.024-6.234.053l-6.35.027c-4.445.023-8.89.063-13.336.112-5.698.06-11.395.067-17.093.059-4.375.002-8.75.04-13.125.088q-3.15.027-6.301.014c-2.94-.008-5.88.04-8.82.09l-5.07.036C809 107 809 107 806.154 110.84L804 115l-3.75 3.625C797 122 797 122 795.813 125.438L796 128h4v6l3 1c3.475 14.458 6.679 34.24 0 48-12.733 6.157-29.175 2.734-42.686.535L756 183v2h2v3l-4-2v4h-3l1 4h-2v2h2v2c4.611.229 9.167.326 13.781.344l4.238.044c4.493.047 8.987.08 13.481.112q8.86.061 17.719.156l4.176.016c3.203.034 6.405.17 9.605.328v2c-2.768.124-2.768.124-6.703-.046l-4.447-.165-4.885-.184c-5.2-.11-10.4-.2-15.6-.29a493 493 0 0 1-10.732-.367c-31.35-1.357-31.35-1.357-42.226 7.226-15.068 14.034-19.252 26.58-20.886 46.904.293 6.363.689 9.76 4.479 14.922 16.537 7.043 39.893 2.393 57.217.553L777 269v1c-18.813 3.438-48.22 8.692-66 0-8.462-13.021-4.485-30.931-1.729-45.41L710 220h-2v4h-2c-.359-10.283-.359-10.283 1-13h-2l-1 3c-3.062.688-3.062.688-6 1l2.467-2.86a837 837 0 0 0 7.485-8.892c13.421-16.14 27.31-31.82 41.61-47.185l3.42-3.678c33.323-35.535 60.723-57.758 110.956-53.822M800 138l-4 4v2l-4 2a327 327 0 0 0-4.739 5.45c-6.074 6.85-12.833 13.11-19.36 19.523l-3.46 3.425-3.165 3.115C759 180 759 180 759 182c3.046.193 6.1.238 9.152.23l5.729-.005 3.008-.02c3.031-.017 6.062-.02 9.093-.02C800.86 182.14 800.86 182.14 802 181c.257-6.808.185-13.625.188-20.437l.037-5.862.005-5.572.013-5.154C802 140 802 140 800 138"/><path fill="#d37858" d="M529 562c4.432 1.108 5.52 2.146 8.677 5.304l2.79 2.771 2.986 3.015 3.077 3.075q3.218 3.222 6.425 6.454c3.287 3.31 6.587 6.607 9.889 9.902q3.119 3.127 6.234 6.256l3.011 3.009 2.752 2.78 2.44 2.454C579 609 579 609 579 611c-2.963.193-5.935.235-8.904.227h-5.885l-6.43-.032-6.524-.008c-5.74-.008-11.482-.028-17.223-.05-5.85-.02-11.702-.03-17.554-.04q-17.24-.032-34.48-.097c2.369-3.948 4.177-6.44 7.316-9.623l2.63-2.678 2.831-2.847 2.918-2.946q3.051-3.072 6.11-6.137c3.13-3.141 6.24-6.3 9.35-9.46q2.965-2.98 5.935-5.957l2.825-2.885c2.27-2.253 4.667-4.375 7.085-6.467"/><path fill="#d17151" d="M950 316h2c.215 2.911.277 5.833.29 8.752l.04 5.784.006 6.316.02 6.404q.017 6.72.015 13.442c0 5.77.027 11.538.061 17.307.022 4.41.026 8.818.025 13.227q.004 3.193.027 6.386c.02 2.963.011 5.926.002 8.888l.008 5.128L952 411c-3.707-1.853-5.616-3.35-8.509-6.203l-2.678-2.63-2.864-2.847-2.95-2.922q-3.08-3.06-6.155-6.128a2150 2150 0 0 0-9.487-9.375 7171 7171 0 0 1-5.97-5.95l-2.894-2.835c-2.262-2.277-4.392-4.683-6.493-7.11 1.44-5.758 5.454-8.862 9.559-12.922l2.604-2.606q2.727-2.724 5.465-5.436a2185 2185 0 0 0 8.382-8.368q2.648-2.64 5.299-5.277l2.544-2.547C943.769 322 943.769 322 946 322l2-4z"/><path fill="#d98b70" d="M727 552c14.91-3.648 30.653-4.791 45.938-5.812l3.347-.228c31.155-1.883 31.155-1.883 42.715 6.04 6.758 13.209 2.739 31.255.875 45.5-4.604 35.2-4.604 35.2.125 45.5 16.847 12.409 47.518 5.772 67.223 3.2A577 577 0 0 0 906 643l-3.257-3.241q-5.983-5.957-11.96-11.92-2.587-2.58-5.176-5.156-3.722-3.706-7.439-7.417l-2.34-2.324c-3.197-3.197-6.11-6.318-8.828-9.942v-2c4 2 4 2 6 6h2v2l5 1 2 3h5l-3-2v-4l5 2c3.313.938 3.313.938 6 1v-5c6.503 5.362 12.41 11.25 18.367 17.2l3.259 3.248q3.393 3.385 6.782 6.775c3.47 3.468 6.95 6.928 10.428 10.388l6.594 6.588 3.165 3.144 2.905 2.914 2.567 2.562C951 660 951 660 952 663c-4.322.304-8.504.387-12.83.356l-4.167.007c-4.583.003-9.166-.016-13.75-.035q-4.743-.005-9.487-.006-9.966-.007-19.932-.04c-8.543-.029-17.087-.04-25.63-.044q-9.804-.008-19.607-.026l-9.454-.015q-6.592-.01-13.184-.036l-4-.003c-2.987-.015-5.973-.08-8.959-.158v-1c4.197-.117 8.378-.165 12.576-.174l4.05-.02q4.372-.021 8.746-.036 6.906-.026 13.811-.065 19.643-.105 39.284-.182 11.993-.048 23.984-.12 4.59-.024 9.177-.037c4.265-.012 8.53-.036 12.796-.063l3.882-.002c2.9-.024 5.798-.15 8.694-.301v-2l-5 1c-4.518.904-7.774 1.003-12.312.688-1.255-.08-2.509-.158-3.801-.239L924 660v-2h-2v-2h2l-1-3h-3a196 196 0 0 1 0-7h-2v-2h-2v2h-2v4h-6l-1-3c-3.44-.372-3.44-.372-8.144-.369l-5.31-.02-5.788.018-8.912-.04c-7.36-.03-14.718-.027-22.077-.025q-6.18 0-12.362-.032-5.838-.028-11.676-.003l-5.328-.03h-4.708L819 646l-3-4h2c3.557-14.46 4.632-29.728 5.625-44.562l.22-3.206c1.8-29.434 1.8-29.434-5.845-41.232-12.69-8.144-29.55-6.28-44-5.062l-3.188.267c-13.72 1.219-27.28 3.215-40.812 5.795l7 7c-3 0-3 0-6.687-3.375C727 554 727 554 727 552"/><path fill="#d06e4c" d="M808 106a255 255 0 0 1 8.828-.161l5.834-.03 6.373-.012 6.464-.017q6.786-.015 13.572-.02c5.82-.006 11.64-.03 17.46-.058 4.452-.019 8.903-.024 13.354-.026q3.222-.004 6.442-.024c2.991-.017 5.983-.013 8.974-.008l5.175-.011c1.163.12 2.326.242 3.524.367l-1 3v-2l-5 1 1 5h-3v2c-4 3-4 3-6 3l1 3-4 1-3-3 2-3h-2l.25-4.125L884 108c-3 .375-3 .375-6 2v2c-3 1.25-3 1.25-6 2v-2h-4v-2l-4 1-2-1v2l-3-1h-4l-4-2q-3.508.448-7 1l-5-1-5 1h-2v-2c-4.937-.375-4.937-.375-10 0l-1 4h-3c-.312 4.938-.312 4.938 0 10l2 1c.056 3.471-.027 6.945-.164 10.414l-.211 6.43q-.182 5.103-.39 10.206c-.129 3.267-.234 6.534-.337 9.802-.075 1.967-.15 3.935-.229 5.963L819 170l4-1v-2h2l-1 5h-4v2h2v2l-2.75.75C816 178 816 178 814.125 181c-2.125 3-2.125 3-6.375 4.5l-3.75.5v-2l-2-1c-.057-3.55.012-7.02.164-10.562l.211-6.54q.182-5.185.39-10.37c.13-3.321.235-6.643.337-9.965l.147-3.157c.082-2.902.082-2.902-.249-7.406l-4-1q.49-3.002 1-6h-4c0-6 0-6 1.863-8.344l2.45-2.156c3.504-3.262 5.973-5.93 7.687-10.5z"/><path fill="#d68267" d="M867 282h1a135 135 0 0 1 .13 6.394l.009 4.227-.006 4.621.003 4.694q0 4.93-.006 9.861-.005 7.572.007 15.144 0 4.776-.004 9.551l.006 4.609-.01 4.246-.002 3.755C868 352 868 352 867 354h3v-4h2v4c2.357-.577 4.687-1.266 7-2 3.875-.5 3.875-.5 7 0 1.438 2.5 1.438 2.5 1 6-3.625 4-3.625 4-8 8a632 632 0 0 0-5 6 283 283 0 0 1-5 5l-2.687 2.813C864 382 864 382 862 382l-2 4-2 2c-2.827-.5-5.651-1.015-8.459-1.611-30.454-6.219-30.454-6.219-43.172-.407-4.206 3.582-4.724 7.865-5.527 13.16-1.36 17.746.42 35.602 2.528 53.227.851 8.08.634 13.96-4.37 20.631-.086-2.665-.08-5.335 0-8l2-2c.272-3.081.272-3.081.303-7.096l.05-4.54.026-4.93.051-5.03c.054-5.322.094-10.644.133-15.966q.064-7.99.142-15.979.049-4.98.08-9.962l.041-4.53.03-4.013C802 388 802 388 803 387c3.385-.16 6.772-.252 10.16-.316l3.09-.063q4.906-.098 9.813-.183l6.634-.131q8.151-.161 16.303-.307c-1-1-1-1-3.604-1.098l-3.443.036-3.75.023-7.86.078-3.765.024-3.456.035C820 385 820 385 815 384l1-4-2-1c2.188-2.562 2.188-2.562 5-5h3v-2l-4.112.871c-6.225.925-9.354 1.253-14.888-1.871-3.867-11.274-1.776-24.869-1.25-36.562q.13-5.269.234-10.538c.458-19.682.458-19.682 1.016-25.9h1c-.153 2.182-.374 4.36-.616 6.533-5.15 50.013-5.15 50.013.616 64.467 6.944 5.704 13.531 5.691 22.063 4.875l3.14-.26c12.67-1.365 24.617-5.43 33.206-15.233 6.089-12.647 4.327-27.541 3.966-41.257q-.053-4.943-.086-9.887c-.05-7.19-.168-14.374-.346-21.561C866 283 866 283 867 282"/><path fill="#d06d4c" d="m877 275 1 4-2 3h2v-2l2 1q-1.47 3.513-3 7l1 2h-2v6h2v-4h2c.107 3.659-.074 7.28-.223 10.938L880 306h3c.258-4.156.258-4.156.125-9.5A463 463 0 0 1 883 287h1c.065 3.495.066 6.97.027 10.465l-.037 6.549a4254 4254 0 0 1-.086 10.403c-.03 3.328-.048 6.657-.064 9.985l-.04 3.166c-.01 2.478.084 4.957.2 7.432l2 1c-1.75 3.063-1.75 3.063-4 6h-2v-4h-2v6h-2v-4h-2c-.336 2.625-.336 2.625-.375 6l-.086 3.375L874 352h4v2h-6v-4h-2l-1 4c-.203-10.125-.343-20.25-.44-30.377q-.06-5.168-.164-10.333c-.097-4.953-.142-9.903-.177-14.856l-.125-4.663c-.005-10.398-.005-10.398 2.705-14.483 2.187-2.065 2.187-2.065 6.201-4.288"/><path fill="#d27657" d="M737 585h2v3l5-2v2h4l1 11h4v4l5 1 1 4h3v-2h2l.375 4.5.625 4.5h4v4h4l1-3h2v2h4v-2h2q.124-4.5 0-9a159 159 0 0 1 6 5v2h2a316 316 0 0 1 4.508 5.23c4.61 5.123 9.68 9.807 14.652 14.575L812 637l-2 2c-3.54-3.325-6.75-6.898-10.031-10.477L797 626l-2 4h-5v4h-2v2l3-1 3 1c1 5 1 5 1 7 2 2 2 2 5.625 2.375L804 646v4l4-2c4 1 4 1 6 3v3h-3l-1 4 4 2-4 2c-3.342-2.593-3.342-2.593-7.37-6.626l-2.229-2.206a1103 1103 0 0 1-7.268-7.309q-2.52-2.52-5.042-5.038-5.287-5.288-10.546-10.604c-4.51-4.555-9.041-9.087-13.58-13.613a3873 3873 0 0 1-10.397-10.423 2180 2180 0 0 0-5.012-5.019 1380 1380 0 0 1-6.962-7.018l-4.014-4.043L735 587z"/><path fill="#d2785a" d="M726 192h5c2.188 2.188 1 7.825 1 11l4 1-1.912 1.896a8660 8660 0 0 0-8.525 8.479l-3.01 2.984-2.862 2.852-2.65 2.634c-7.045 7.438-6.734 21.458-7.52 31.233.293 6.363.689 9.76 4.479 14.922 16.537 7.043 39.893 2.393 57.217.553L777 269v1c-18.813 3.438-48.22 8.692-66 0-8.462-13.021-4.485-30.931-1.729-45.41L710 220h-2v4h-2c-.359-10.283-.359-10.283 1-13h-2l-1 3c-3.062.688-3.062.688-6 1 4.397-5.245 9.002-10.195 13.813-15.062l4.019-4.098L719 193l1 2-1 3-2 1-2 4-4 1v2h3v-2h4v-4h4v-4h4z"/><path fill="#d36f4e" d="M758 185c6.03-.744 12.091-.686 18.164-.72 3.088-.03 6.17-.123 9.258-.218l5.781-.046 5.396-.085L800 185c-1.575 4.562-1.575 4.562-4 9h2v4h2v-2c3.5-.266 3.5-.266 8-.25l4.5-.016 3.5.266v2c-5.174 1.725-10.716 1.141-16.129 1.133l-3.941.003q-4.127 0-8.254-.006-6.338-.005-12.674.007-4.003 0-8.006-.004l-3.85.006c-8.916-.024-8.916-.024-11.146-1.139v-2h-2v-2h2l-1-4h3v-4c3 1 3 1 4 2z"/><path fill="#c77458" d="M697 215c2.037 4.074 1.006 9.464.914 13.973l-.064 3.616q-.07 3.789-.147 7.578a3801 3801 0 0 0-.21 11.647l-.141 7.346-.06 3.545c-.177 8.18-.177 8.18-1.292 9.295l-4.062-.062L688 272v2h-2v-2c-2.959-.247-2.959-.247-7.157-.243l-4.734-.01-5.18.023h-5.27q-5.541.006-11.082.024c-5.656.018-11.312.02-16.968.02l-10.742.018-5.142.003-4.792.02-4.212.011c-3.341.12-6.445.492-9.721 1.134 2.789-2.789 5.155-3.166 9-4 4.03.045 4.03.045 8.506.443C677.819 274.14 677.819 274.14 694 268c4.356-3.894 5.216-8.064 5.734-13.726.032-9.957-2.07-19.77-4.742-29.316C694 220 694 220 697 215"/><path fill="#de9c86" d="M718.973 481.702c20.232-2.714 44.106-1.247 64.027 3.298v2c-3.526 1.175-5.707.872-9.4.491-7.337-.696-14.662-1.123-22.025-1.46a196 196 0 0 1-9.542-.798c-17.028-1.785-17.028-1.785-25.103 1.293-6.385 5.393-7.542 13.865-8.293 21.823-.463 9.435.088 17.492 5.363 25.651 14.956 7.742 35.225 4.273 51.455 3.032 6.69-.466 13.387-.686 20.088-.923 11.764-.442 23.5-1.105 35.243-1.926L825 534v1a322 322 0 0 1-10.265.13l-3.306.005q-5.446.004-10.894-.002-3.763 0-7.526.003-7.902.002-15.806-.006-10.155-.006-20.312.004-7.776.005-15.552 0l-7.491.002q-5.227.003-10.453-.007l-3.163.007c-7.118-.022-7.118-.022-8.232-1.136-3.683-14.016-7.586-30.897-3.379-45.147 3.688-5.297 4.4-5.752 10.352-7.15"/><path fill="#c36e52" d="M727 551c15.46-3.005 31.236-4.393 46.938-5.375l3.38-.213c31.016-1.73 31.016-1.73 43.682 5.588 12.507 17.031 6.478 45.898 3.988 65.723a641 641 0 0 1-2.514 15.208C822 636 822 636 822.67 639.975L823 643l-4 1c.138-3.372.138-3.372 1.006-8.332C830.48 569.958 830.48 569.958 819 552c-22.504-14.582-63.641-4.755-88.507-.499L727 552z"/><path fill="#e9b5a3" d="m496 419 2 1c-2.936 3.123-6.076 5.996-9.207 8.922C486 432 486 432 485 437c-2.5 2.188-2.5 2.188-5 4l-1 2h-2v2l-2.576.843C466.669 448.463 462.02 452.92 458 460c-2.509 10.988-1.701 22.636-1.559 33.828q-.005 4.98-.025 9.96c-.021 8.706.038 17.41.111 26.117.047 7.135.038 14.27.026 21.405-.013 8.485-.004 16.97.013 25.456l.01 4.931q.026 6.859.082 13.718l.012 4.15c.034 3.146.17 6.292.33 9.435l2 1-3 1c-.43-4.527-.633-8.919-.721-13.459l-.119-4.375c-.382-15.235-.55-30.475-.705-45.714-.08-7.218-.225-14.43-.43-21.645-.248-8.72-.374-17.435-.419-26.16q-.054-4.965-.235-9.93c-.945-27.172-.945-27.172 8.068-38.263C467.09 445.401 473.153 439.69 480 435h2v-2h2l2-4a124 124 0 0 1 5-5.312l2.688-2.739z"/><path fill="#d17759" d="M830.852 103.242q3.357.051 6.716.077c5.833.068 11.658.245 17.488.445 5.972.186 11.946.267 17.92.357A2164 2164 0 0 1 908 105l-3 5-1-4c-3.693-.497-3.693-.497-8.755-.49l-5.714-.016q-3.117.024-6.234.053l-6.35.027c-4.445.023-8.89.063-13.336.112-5.698.06-11.395.067-17.093.059-4.375.002-8.75.04-13.125.088q-3.15.027-6.301.014c-2.94-.008-5.88.04-8.82.09l-5.07.036C809 107 809 107 806.071 110.9L804 115c-2.422 2.68-2.422 2.68-4.75 4.875C795 124 795 124 794 126h-2v2h-3c0-7.635 4.86-11.508 9.946-16.681 9.544-8.79 19.571-8.63 31.906-8.077M787 128l2 1c-3 5-3 5-7 9h-2v2h-2l1-4h2v-3l4-1v-3z"/><path fill="#c56d50" d="M697 485c.191 4.5.255 8.94.23 13.441v4.099q-.006 4.3-.024 8.597a3154 3154 0 0 0-.02 13.228q-.008 4.164-.018 8.326l-.003 4.034A447 447 0 0 1 697 546h-1q.963-4.41 1.93-8.817c6.694-33.03 6.694-33.03-.44-46.594-6.769-7.039-18.157-6.434-27.288-6.856-19.224-.233-38.478 1.121-57.583 3.155C609 487 609 487 606 485q17.355-.231 34.709-.443 8.058-.098 16.115-.205c6.17-.083 12.341-.157 18.512-.23l5.868-.083 5.399-.06 4.778-.061C695 484 695 484 697 485"/><path fill="#dc957f" d="M950 316h2c.215 2.911.277 5.833.29 8.752l.04 5.784.006 6.316.02 6.404q.017 6.72.015 13.442c0 5.77.027 11.538.061 17.307.022 4.41.026 8.818.025 13.227q.004 3.193.027 6.386c.02 2.963.011 5.926.002 8.888l.008 5.128L952 411c-4.288-2.144-6.78-4.487-10-8v-2l3-1 1 5h3c.36-3.093.36-3.093.34-7.48v-4.945l-.047-5.407-.013-5.494c-.017-5.829-.054-11.658-.092-17.486q-.024-5.888-.042-11.776a9214 9214 0 0 0-.126-25.938q-.019-3.237-.02-6.474l-3 2c2-4 2-4 4-6"/><path fill="#dcaf9e" d="m811.499 386.861 3.63.006 3.695-.003q3.875 0 7.75.006 5.963.006 11.924-.007 3.753 0 7.506.004l3.636-.006c2.787.008 5.574.067 8.36.139v1c-2.745-.57-5.49-1.142-8.232-1.725-30.732-6.086-30.732-6.086-43.385-.3-4.22 3.586-4.745 7.862-5.55 13.171-1.356 17.744.43 35.601 2.537 53.223.851 8.08.634 13.96-4.37 20.631-.086-2.665-.08-5.335 0-8l2-2c.272-3.081.272-3.081.303-7.096l.05-4.54.026-4.93.051-5.03c.054-5.322.094-10.644.132-15.966q.066-7.99.143-15.979.049-4.98.08-9.962l.041-4.53.03-4.013c.295-6.043 4.547-4.078 9.643-4.093"/><path fill="#edcdc0" d="M697 215c1 2 1 2 0 6 .62 2.647 1.248 5.292 1.93 7.923 2.8 11.474 5.549 24.962 1.225 36.328-2.328 3.663-3.867 4.644-7.986 6.146-12.937 2.565-26.113 2.242-39.231 1.728l-3.114-.12c-13.279-.55-26.652-1.186-39.824-3.005v-1c2.574.133 5.144.334 7.71.556 59.617 4.717 59.617 4.717 76.29-1.556 4.386-3.89 5.246-8.048 5.756-13.73.011-9.95-2.093-19.771-4.764-29.312C694 220 694 220 697 215"/><path fill="#d48a70" d="M737 585h2v3l5-2v2h4l1 11h4v4l5 1 1 4h3v-2h2l.375 4.5.625 4.5h4v4l4 1-1 4a4709 4709 0 0 1-15.918-15.698 1910 1910 0 0 0-5.425-5.343 1838 1838 0 0 1-7.759-7.67l-2.483-2.421c-1.883-1.882-3.663-3.865-5.415-5.868z"/><path fill="#dfad9b" d="M711 224h3c-.527 3.301-1.2 6.58-1.922 9.844C707.58 259.35 707.58 259.35 714 269c16.238 7.488 40.081 2.55 57.217.6L777 269v1c-19.017 3.262-47.898 8.179-66 0-7.35-10.464-4.672-23.981-2.613-35.937 1.225-5.84 1.225-5.84 2.613-10.063"/><path fill="#d67f63" d="M841 551c5.251 4.384 10.123 9.018 14.938 13.875l4.027 4.055L863 572c-4 1-4 1-9 0v-2l-4-1-2-5-3 1-1-5h-2v-2h-2v-2h-2l1-4 2 1z"/><path fill="#d58e76" d="m948 199 2 1-2.687 2.625C944 206 944 206 942.438 209.75 941 213 941 213 936 215l-1 4c-7.35 7-7.35 7-10 7v2h-2v2h-2v2l-4 3-1 2h-3v3c-2.25 2.75-2.25 2.75-5 5l-4-1 3.102-3.086q5.737-5.711 11.467-11.428 2.474-2.466 4.95-4.929 3.573-3.556 7.141-7.12l2.21-2.194c4.584-4.583 8.897-9.336 13.13-14.243z"/><path fill="#c16d4f" d="M948 659v2c-4.221 2.11-9.935 1.137-14.62 1.13l-3.99.005q-6.56.004-13.117-.002l-9.071.003q-9.516.002-19.031-.006-12.234-.006-24.47.004-9.367.004-18.734 0-4.514 0-9.027.002-6.29.003-12.58-.007l-3.815.007A382 382 0 0 1 811 662v-1c3.931-.117 7.846-.165 11.778-.174l3.794-.02q4.098-.021 8.196-.036 6.48-.026 12.958-.065 18.43-.105 36.857-.182 11.253-.049 22.506-.12 4.299-.024 8.598-.037c4.006-.012 8.011-.036 12.017-.063l3.612-.002c5.934-.053 11.285-2.65 16.684-1.301"/><path fill="#e5b09d" d="M823.532 120.77c13.825-2.16 27.778-.188 41.468 2.23l-2 2c-3.127-.338-6.242-.786-9.348-1.281-23.957-2.832-23.957-2.832-32.652 1.281-6.177 12.223-2.952 28.907-1 42l3.937-3.625L828 160l1 2-2 4-4 1v2l-4 1c-2.152-7.636-2.674-15.537-3.125-23.437l-.194-3.38c-.606-18.251-.606-18.251 7.851-22.413"/><path fill="#daac9c" d="M807 105c4.195-.481 4.195-.481 9.612-.454l2.987-.002c3.263.003 6.525.034 9.788.065q3.39.012 6.78.018c5.953.015 11.906.054 17.859.098 6.073.041 12.145.06 18.218.08q17.878.066 35.756.195l-3 5-1-4c-3.738-.457-3.738-.457-8.863-.394l-5.784.042-6.31.11q-3.212.037-6.424.07-6.746.076-13.49.188c-5.767.094-11.534.162-17.302.221-4.426.047-8.851.105-13.277.165q-3.19.043-6.379.08c-2.973.035-5.947.085-8.92.136l-5.132.077C808 107 808 107 804 109z"/><path fill="#d69178" d="m755 157 1 4c-6.115 6-6.115 6-9 6l-1 4h-3v3h-2l-1 4c-6.25 5-6.25 5-9 5v3c-3 1.188-3 1.188-6 2 5.67-6.932 12.027-13.138 18.375-19.437l3.387-3.374q4.116-4.097 8.238-8.189"/><path fill="#e8ad9a" d="M801 136h2c3.205 14.213 6.583 33.553 0 47-13.83 6.662-32.385 2.527-47 0l3-3v2c12.73 2.595 30.095 4.94 42-1 6.038-12.139 3.192-31.425-1-44z"/><path fill="#d1886f" d="M782 607a159 159 0 0 1 6 5v2h2a316 316 0 0 1 4.508 5.23c4.61 5.123 9.68 9.807 14.652 14.575L812 637l-2 2c-2.063-1.577-2.063-1.577-4.57-4.11l-2.715-2.726-2.84-2.914-2.863-2.867C790 619.28 790 619.28 790 617h-2v-2l-3 1.5-3 .5c-.375-4.875-.375-4.875 0-10"/><path fill="#d2785c" d="m470 592 3 1c-1.99 3.98-3.848 6.055-7 9.125l-2.687 2.633L461 607l-2 2c-2.102-4.205-1.426-8.477-1-13 3.188.125 3.188.125 7 1 2.75-2.5 2.75-2.5 5-5"/><path fill="#d9977e" d="m944 322 2 1q-3.482 4.016-7 8l-2 5c-4.294 4.15-8.367 7.854-14 10l-2-1c1.853-2.24 1.853-2.24 4.766-5.164l3.136-3.149 3.348-3.312c1.09-1.1 2.179-2.202 3.3-3.336l6.08-6.057z"/><path fill="#d68c73" d="m903 107 1 4a124 124 0 0 1-8.312 8.875l-2.42 2.453c-2.005 1.98-4.128 3.839-6.268 5.672l-2-2v-3l5-3v-2c4-3 4-3 6-3v-2h3l-1-5c2-1 2-1 5-1"/><path fill="#d3a593" d="M520 420h2c.254 2.555.254 2.555.259 6.179l.019 4.086-.012 4.47.005 4.544q.003 4.778-.01 9.554c-.01 4.881 0 9.762.012 14.644q0 4.628-.007 9.257l.012 4.445-.02 4.125c0 1.199-.002 2.398-.004 3.633C522 488 522 488 520 492l.007-2.568q.032-13.187.048-26.375.008-4.927.02-9.853.018-7.067.023-14.134l.015-4.476v-4.125l.007-3.647C520 424 520 424 519 422z"/><path fill="#cf9582" d="M695 488h1c.04 4.223.016 8.43-.043 12.652q-.034 3.959-.064 7.916c-.038 4.193-.08 8.384-.14 12.576-.054 4.024-.083 8.047-.108 12.07l-.073 3.83c-.01 3.518-.01 3.518.428 8.956l4 1 3 3-1 4c-3.958-2.928-6.643-5.312-7.687-10.252-.27-4.034-.334-8.018-.313-12.06l-.052-4.399c-.1-13.085.039-26.237 1.052-39.289"/><path fill="#d79983" d="M867 601c4 2 4 2 6 6h2v2l5 1 1 5h2v2h2v2h2v2h2l1 5c-8.33-6.78-16.546-14.395-23-23z"/><path fill="#d99982" d="m496 419 2 1c-2.936 3.123-6.076 5.996-9.207 8.922C486 432 486 432 485 437c-2.5 2.188-2.5 2.188-5 4l-1 2h-2v2l-4-1 3-3 3-5 3-1v-2h2l2-4a124 124 0 0 1 5-5.312l2.688-2.739z"/><path fill="#d17b5e" d="M949 237h1c.468 8.02.643 16.048.832 24.078q.105 4.097.248 8.192c.137 3.924.234 7.847.322 11.773l.151 3.7c.084 5.537.059 8.51-3.516 12.88L945 299l-1-5 3 1v-3h2c.169-4.033.205-7.999.16-12.031l-.016-3.7c-.018-3.923-.049-7.846-.082-11.769q-.042-5.884-.07-11.77-.019-3.672-.054-7.344c-.017-2.796.017-5.591.062-8.386"/><path fill="#d5896f" d="M487 482c6.696 4.658 12.283 11.19 18 17l-4 1-4-3v-3l-5-1-1-5-5-1z"/><path fill="#dca08a" d="M522 393h5c-8.229 9.691-8.229 9.691-14 12-2.676 2.383-2.676 2.383-5.312 5.125l-2.676 2.758L503 415c0-3 0-3 2.336-5.7l3.039-2.988 3.023-3.011C514 401 514 401 516 401l2-4z"/><path fill="#cf7d60" d="m489 572 4 1c-2.264 4.528-4.932 7.232-8.5 10.813l-3.531 3.582L478 590l-2-1v-3h2v-3h4v-2h2l1-4h2z"/><path fill="#d57f62" d="M832 174h4c0 6 0 6-3.875 10.563L828 188c-2-3-2-3-2-5h4l-2-3v-4h4z"/><path fill="#d6937b" d="M715 566c3 .313 3 .313 6 1v2l3 1v2h2l1 3 3 1 1 5 4 1-1 4q-4.754-4.716-9.5-9.437l-2.746-2.721A712 712 0 0 1 715 567z"/><path fill="#d47f62" d="M737 585h2v3l5-2v2h4c-.062 3.438-.062 3.438-1 7l-3 1c-2.332-1.8-2.332-1.8-4.812-4.312l-2.52-2.489L735 587z"/><path fill="#d2795d" d="M534 518h2c2.4 7.374 2.4 7.374 2 12-2.796 4.022-6.155 6.993-10 10l-1-4 2-3h4c.54-3.281.54-3.281.625-7.5.06-2.502.167-5.006.375-7.5"/><path fill="#d17b5e" d="M831 540c-4 1-4 1-7 0v-3c-3.855-.325-3.855-.325-9.187-.258l-5.743.043-6.07.09c-3.937.046-7.875.082-11.812.117l-5.333.074L782 537v-1c6.006-.444 12.023-.6 18.042-.777q3.068-.097 6.134-.228c2.943-.125 5.887-.213 8.832-.3l5.364-.187c5.21.554 7.059 1.764 10.628 5.492"/></svg>